:FULLY-SPECIFIED
:FORCE-ALL-JOINTS-BE-3DOF
:DEGREES
238
root 5.56757 15.6362 -25.8252 9.75906 23.9404 -7.67929
lfemur -42.0623 34.9003 -6.73947
ltibia 53.8417 0 0
lfoot -14.3589 8.32652 0
ltoes -4.04473 0 0
rfemur -16.5896 -11.7075 5.20227
rtibia 33.5627 0 0
rfoot -39.4383 -8.86853 0
rtoes 56.8072 0 0
lowerback 1.052 -2.36727 3.03565
upperback -1.28956 -3.02649 3.56235
thorax -1.87494 -1.5232 2.04121
lowerneck -10.4109 -2.01623 0.047864
upperneck 1.41065 -2.67687 -0.203112
head 2.23504 -1.33755 -0.207234
lclavicle -4.16207e-15 -4.47266e-15 0
lhumerus -55.1573 -33.3542 122.231
lradius 62.7872 0 0
lwrist 19.2701 0 0
lhand 6.28523 13.5866 0
lfingers 7.12502 0 0
lthumb 31.5904 40.8312 0
rclavicle -4.16207e-15 -4.47266e-15 0
rhumerus -34.9006 -21.7661 -69.1397
rradius 99.2323 0 0
rwrist -52.4546 0 0
rhand -7.2222 -23.7233 0
rfingers 7.12502 0 0
rthumb 18.4956 -770.865 0
239
root 5.67505 15.6683 -25.807 9.48658 25.7624 -7.71711
lfemur -42.2547 34.4928 -7.71575
ltibia 53.361 0 0
lfoot -14.9767 8.06086 0
ltoes -0.68156 0 0
rfemur -14.9921 -9.56314 5.01926
rtibia 32.7575 0 0
rfoot -40.9208 -11.7157 0
rtoes 56.5473 0 0
lowerback 0.978351 -2.48005 3.00835
upperback -1.3811 -3.17235 3.75586
thorax -1.91441 -1.59416 2.25909
lowerneck -10.1854 -2.27941 0.0151223
upperneck 1.58545 -3.02248 -0.227621
head 2.25148 -1.51072 -0.225496
lclavicle -8.51776e-15 -2.36186e-15 0
lhumerus -55.462 -32.636 122.465
lradius 63.0281 0 0
lwrist 18.9701 0 0
lhand 5.21804 12.9552 0
lfingers 7.12502 0 0
lthumb 30.5739 40.4 0
rclavicle -8.51776e-15 -2.36186e-15 0
rhumerus -35.177 -23.7731 -68.5206
rradius 96.4921 0 0
rwrist -53.5435 0 0
rhand -15.9856 -23.7991 0
rfingers 7.12502 0 0
rthumb 10.0967 -771.903 0
240
root 5.7791 15.6994 -25.7893 9.2228 27.5262 -7.75372
lfemur -42.4409 34.0983 -8.66088
ltibia 52.8957 0 0
lfoot -15.5748 7.80368 0
ltoes 2.57428 0 0
rfemur -13.4456 -7.4872 4.84208
rtibia 31.978 0 0
rfoot -42.3559 -14.472 0
rtoes 56.2956 0 0
lowerback 0.907054 -2.58924 2.98193
upperback -1.46972 -3.31357 3.9432
thorax -1.95261 -1.66285 2.47002
lowerneck -9.96717 -2.53419 -0.0165743
upperneck 1.75467 -3.35707 -0.251348
head 2.26739 -1.67836 -0.243177
lclavicle -1.27344e-14 -3.18423e-16 0
lhumerus -55.757 -31.9407 122.692
lradius 63.2614 0 0
lwrist 18.6796 0 0
lhand 4.18491 12.3439 0
lfingers 7.12502 0 0
lthumb 29.5899 39.9827 0
rclavicle -1.27344e-14 -3.18423e-16 0
rhumerus -35.4446 -25.7161 -67.9212
rradius 93.8394 0 0
rwrist -54.5977 0 0
rhand -24.4694 -23.8724 0
rfingers 7.12502 0 0
rthumb 1.96583 -772.908 0
241
root 5.87628 15.7285 -25.7728 8.97641 29.1737 -7.78792
lfemur -42.6148 33.7298 -9.54369
ltibia 52.461 0 0
lfoot -16.1335 7.56346 0
ltoes 5.61544 0 0
rfemur -12.001 -5.54814 4.67659
rtibia 31.2499 0 0
rfoot -43.6965 -17.0466 0
rtoes 56.0605 0 0
lowerback 0.840458 -2.69122 2.95724
upperback -1.55249 -3.44547 4.11819
thorax -1.98829 -1.72702 2.66704
lowerneck -9.7633 -2.77217 -0.0461811
upperneck 1.91274 -3.66959 -0.27351
head 2.28226 -1.83494 -0.259691
lclavicle -1.66731e-14 1.59028e-15 0
lhumerus -56.0326 -31.2912 122.904
lradius 63.4793 0 0
lwrist 18.4083 0 0
lhand 3.2199 11.7729 0
lfingers 7.12502 0 0
lthumb 28.6707 39.5928 0
rclavicle -1.66731e-14 1.59028e-15 0
rhumerus -35.6945 -27.531 -67.3613
rradius 91.3616 0 0
rwrist -55.5824 0 0
rhand -32.3938 -23.941 0
rfingers 7.12502 0 0
rthumb -5.62894 -773.846 0
242
root 5.98872 15.7669 -25.7629 8.93714 30.8964 -7.36741
lfemur -42.1707 32.6288 -10.2249
ltibia 51.7179 0 0
lfoot -16.4644 6.46746 0
ltoes 10.0724 0 0
rfemur -11.6238 -4.14214 4.47222
rtibia 32.4432 0 0
rfoot -42.5498 -19.1969 0
rtoes 55.8458 0 0
lowerback 0.731918 -2.73802 2.76672
upperback -1.5222 -3.51913 4.00678
thorax -1.88916 -1.76214 2.65209
lowerneck -9.76086 -3.18989 -0.0870469
upperneck 1.96596 -4.22835 -0.130013
head 2.30546 -2.10846 -0.23607
lclavicle -1.74984e-14 4.03092e-15 0
lhumerus -55.8806 -31.5501 122.776
lradius 63.3439 0 0
lwrist 18.1956 0 0
lhand 3.44198 11.865 0
lfingers 7.12502 0 0
lthumb 28.8827 39.6478 0
rclavicle -1.74984e-14 4.03092e-15 0
rhumerus -36.3895 -25.7939 -66.8155
rradius 86.6079 0 0
rwrist -44.4303 0 0
rhand -29.8298 -24.2001 0
rfingers 7.12502 0 0
rthumb -3.15321 -774.079 0
243
root 6.10911 15.8079 -25.7522 8.89511 32.7407 -6.91722
lfemur -41.6952 31.4502 -10.9543
ltibia 50.9224 0 0
lfoot -16.8187 5.29409 0
ltoes 14.844 0 0
rfemur -11.2199 -2.63689 4.25341
rtibia 33.7207 0 0
rfoot -41.3222 -21.499 0
rtoes 55.6159 0 0
lowerback 0.615716 -2.78813 2.56274
upperback -1.48978 -3.59799 3.8875
thorax -1.78303 -1.79973 2.63609
lowerneck -9.75825 -3.63711 -0.130797
upperneck 2.02294 -4.82654 0.0236139
head 2.3303 -2.40128 -0.210783
lclavicle -1.83819e-14 6.64383e-15 0
lhumerus -55.7178 -31.8273 122.638
lradius 63.1988 0 0
lwrist 17.9679 0 0
lhand 3.67973 11.9637 0
lfingers 7.12502 0 0
lthumb 29.1097 39.7067 0
rclavicle -1.83819e-14 6.64383e-15 0
rhumerus -37.1336 -23.9342 -66.2312
rradius 81.5186 0 0
rwrist -32.491 0 0
rhand -27.0848 -24.4775 0
rfingers 7.12502 0 0
rthumb -0.502731 -774.328 0
244
root 6.23346 15.8503 -25.7413 8.85168 34.6459 -6.45219
lfemur -41.2041 30.2326 -11.7076
ltibia 50.1007 0 0
lfoot -17.1847 4.08204 0
ltoes 19.7729 0 0
rfemur -10.8028 -1.08202 4.0274
rtibia 35.0403 0 0
rfoot -40.0541 -23.877 0
rtoes 55.3784 0 0
lowerback 0.495683 -2.83989 2.35204
upperback -1.45628 -3.67945 3.7643
thorax -1.67341 -1.83857 2.61956
lowerneck -9.75556 -4.09906 -0.17599
upperneck 2.08179 -5.44446 0.182305
head 2.35596 -2.70376 -0.184661
lclavicle -1.92946e-14 9.34289e-15 0
lhumerus -55.5497 -32.1136 122.496
lradius 63.0491 0 0
lwrist 17.7326 0 0
lhand 3.92532 12.0655 0
lfingers 7.12502 0 0
lthumb 29.3442 39.7675 0
rclavicle -1.92946e-14 9.34289e-15 0
rhumerus -37.9023 -22.0132 -65.6277
rradius 76.2616 0 0
rwrist -20.1581 0 0
rhand -24.2492 -24.764 0
rfingers 7.12502 0 0
rthumb 2.23513 -774.586 0
245
root 6.3578 15.8928 -25.7303 8.80826 36.551 -5.98716
lfemur -40.713 29.0151 -12.461
ltibia 49.279 0 0
lfoot -17.5506 2.86999 0
ltoes 24.7018 0 0
rfemur -10.3856 0.472851 3.80139
rtibia 36.3599 0 0
rfoot -38.786 -26.255 0
rtoes 55.1409 0 0
lowerback 0.37565 -2.89165 2.14135
upperback -1.42279 -3.76091 3.64109
thorax -1.56378 -1.87741 2.60303
lowerneck -9.75287 -4.56101 -0.221183
upperneck 2.14064 -6.06238 0.340996
head 2.38162 -3.00623 -0.158539
lclavicle -2.02072e-14 1.20419e-14 0
lhumerus -55.3816 -32.3999 122.354
lradius 62.8993 0 0
lwrist 17.4974 0 0
lhand 4.17092 12.1674 0
lfingers 7.12502 0 0
lthumb 29.5787 39.8284 0
rclavicle -2.02072e-14 1.20419e-14 0
rhumerus -38.6709 -20.0923 -65.0241
rradius 71.0046 0 0
rwrist -7.82526 0 0
rhand -21.4137 -25.0506 0
rfingers 7.12502 0 0
rthumb 4.97299 -774.843 0
246
root 6.47819 15.9338 -25.7196 8.76623 38.3953 -5.53697
lfemur -40.2375 27.8365 -13.1904
ltibia 48.4835 0 0
lfoot -17.9049 1.69663 0
ltoes 29.4734 0 0
rfemur -9.98176 1.9781 3.58258
rtibia 37.6374 0 0
rfoot -37.5584 -28.5571 0
rtoes 54.911 0 0
lowerback 0.259448 -2.94176 1.93737
upperback -1.39037 -3.83977 3.52181
thorax -1.45765 -1.915 2.58703
lowerneck -9.75026 -5.00823 -0.264933
upperneck 2.19762 -6.66057 0.494623
head 2.40646 -3.29905 -0.133252
lclavicle -2.10907e-14 1.46549e-14 0
lhumerus -55.2188 -32.6771 122.216
lradius 62.7542 0 0
lwrist 17.2697 0 0
lhand 4.40867 12.2661 0
lfingers 7.12502 0 0
lthumb 29.8057 39.8873 0
rclavicle -2.10907e-14 1.46549e-14 0
rhumerus -39.415 -18.2326 -64.4398
rradius 65.9153 0 0
rwrist 4.11402 0 0
rhand -18.6687 -25.328 0
rfingers 7.12502 0 0
rthumb 7.62347 -775.092 0
247
root 6.59063 15.9722 -25.7097 8.72696 40.118 -5.11646
lfemur -39.7934 26.7355 -13.8716
ltibia 47.7404 0 0
lfoot -18.2358 0.600623 0
ltoes 33.9304 0 0
rfemur -9.60454 3.3841 3.37821
rtibia 38.8307 0 0
rfoot -36.4117 -30.7074 0
rtoes 54.6963 0 0
lowerback 0.150908 -2.98856 1.74685
upperback -1.36008 -3.91343 3.4104
thorax -1.35852 -1.95012 2.57208
lowerneck -9.74782 -5.42595 -0.305799
upperneck 2.25084 -7.21933 0.63812
head 2.42966 -3.57257 -0.109631
lclavicle -2.1916e-14 1.70955e-14 0
lhumerus -55.0668 -32.936 122.088
lradius 62.6188 0 0
lwrist 17.057 0 0
lhand 4.63075 12.3582 0
lfingers 7.12502 0 0
lthumb 30.0177 39.9423 0
rclavicle -2.1916e-14 1.70955e-14 0
rhumerus -40.11 -16.4955 -63.894
rradius 61.1616 0 0
rwrist 15.2661 0 0
rhand -16.1047 -25.5871 0
rfingers 7.12502 0 0
rthumb 10.0992 -775.325 0
248
root 6.67892 16.006 -25.7078 8.85151 41.3638 -4.43209
lfemur -39.0239 25.8756 -14.4148
ltibia 47.0894 0 0
lfoot -17.9398 -0.847981 0
ltoes 36.9731 0 0
rfemur -10.8164 3.52914 3.03568
rtibia 42.3426 0 0
rfoot -27.883 -28.2377 0
rtoes 45.3949 0 0
lowerback 0.382475 -2.91669 1.30599
upperback -1.26438 -3.82502 3.31725
thorax -1.37306 -1.90274 2.7303
lowerneck -9.75293 -5.80272 -0.572066
upperneck 2.28873 -7.68977 0.646915
head 2.46052 -3.80891 -0.0896477
lclavicle -2.25183e-14 1.49678e-14 0
lhumerus -54.4616 -33.0799 121.625
lradius 62.4257 0 0
lwrist 17.5214 0 0
lhand 5.02688 12.332 0
lfingers 7.12502 0 0
lthumb 30.3952 39.8433 0
rclavicle -2.25183e-14 1.49678e-14 0
rhumerus -40.502 -14.9113 -64.2161
rradius 57.9006 0 0
rwrist 19.7454 0 0
rhand -16.2962 -21.8126 0
rfingers 7.12502 0 0
rthumb 9.91443 -771.559 0
249
root 6.77344 16.0421 -25.7057 8.98486 42.6975 -3.69941
lfemur -38.2001 24.955 -14.9963
ltibia 46.3925 0 0
lfoot -17.623 -2.39884 0
ltoes 40.2306 0 0
rfemur -12.1138 3.68441 2.66898
rtibia 46.1024 0 0
rfoot -18.7522 -25.5936 0
rtoes 35.4369 0 0
lowerback 0.630388 -2.83975 0.83401
upperback -1.16192 -3.73037 3.21753
thorax -1.38862 -1.85202 2.89969
lowerneck -9.7584 -6.20609 -0.857129
upperneck 2.3293 -8.19342 0.656331
head 2.49356 -4.06193 -0.0682539
lclavicle -2.31632e-14 1.26898e-14 0
lhumerus -53.8136 -33.2339 121.13
lradius 62.219 0 0
lwrist 18.0185 0 0
lhand 5.45098 12.304 0
lfingers 7.12502 0 0
lthumb 30.7993 39.7374 0
rclavicle -2.31632e-14 1.26898e-14 0
rhumerus -40.9216 -13.2153 -64.5609
rradius 54.4094 0 0
rwrist 24.5408 0 0
rhand -16.5012 -17.7717 0
rfingers 7.12502 0 0
rthumb 9.71662 -767.527 0
250
root 6.87107 16.0794 -25.7035 9.1226 44.0752 -2.94258
lfemur -37.3492 24.004 -15.597
ltibia 45.6726 0 0
lfoot -17.2956 -4.00082 0
ltoes 43.5955 0 0
rfemur -13.454 3.84481 2.29019
rtibia 49.9862 0 0
rfoot -9.32045 -22.8623 0
rtoes 25.1507 0 0
lowerback 0.886474 -2.76028 0.34647
upperback -1.05609 -3.63261 3.11452
thorax -1.40469 -1.79962 3.07466
lowerneck -9.76404 -6.62276 -1.15159
upperneck 2.37121 -8.71366 0.666057
head 2.52769 -4.32329 -0.0461547
lclavicle -2.38293e-14 1.03368e-14 0
lhumerus -53.1444 -33.393 120.618
lradius 62.0054 0 0
lwrist 18.5321 0 0
lhand 5.88905 12.2751 0
lfingers 7.12502 0 0
lthumb 31.2168 39.6279 0
rclavicle -2.38293e-14 1.03368e-14 0
rhumerus -41.3551 -11.4633 -64.9171
rradius 50.8031 0 0
rwrist 29.4943 0 0
rhand -16.713 -13.5976 0
rfingers 7.12502 0 0
rthumb 9.5123 -763.362 0
251
root 6.9687 16.1168 -25.7014 9.26034 45.453 -2.18575
lfemur -36.4983 23.0531 -16.1977
ltibia 44.9526 0 0
lfoot -16.9683 -5.60281 0
ltoes 46.9604 0 0
rfemur -14.7941 4.00521 1.91139
rtibia 53.8699 0 0
rfoot 0.111319 -20.1311 0
rtoes 14.8644 0 0
lowerback 1.14256 -2.6808 -0.14107
upperback -0.950256 -3.53484 3.01151
thorax -1.42076 -1.74722 3.24964
lowerneck -9.76969 -7.03942 -1.44605
upperneck 2.41312 -9.23391 0.675783
head 2.56181 -4.58465 -0.0240555
lclavicle -2.44954e-14 7.98378e-15 0
lhumerus -52.4751 -33.5521 120.107
lradius 61.7919 0 0
lwrist 19.0456 0 0
lhand 6.32712 12.2461 0
lfingers 7.12502 0 0
lthumb 31.6343 39.5184 0
rclavicle -2.44954e-14 7.98378e-15 0
rhumerus -41.7886 -9.71139 -65.2732
rradius 47.1968 0 0
rwrist 34.4479 0 0
rhand -16.9247 -9.42347 0
rfingers 7.12502 0 0
rthumb 9.30797 -759.197 0
